<svg width="176" height="63" viewBox="0 0 176 63" fill="none" xmlns="http://www.w3.org/2000/svg">
<path d="M176 31.5C176 48.9025 161.962 63 144.634 63C127.305 63 113.267 48.9025 113.267 31.5C113.267 14.0975 127.305 0 144.634 0C161.962 0 176 14.0975 176 31.5Z" fill="#40AE49"/>
<path d="M153.351 44.1815H153.197H140.825C140.825 44.1815 140.518 44.2318 140.313 43.8797C140.109 43.5276 140.365 43.2761 140.365 43.2761C140.365 43.2761 146.091 37.2398 148.954 34.2719C152.328 30.7005 155.089 27.5314 155.089 23.306C155.089 18.3763 151.51 14 144.455 14C139.904 14 136.786 16.8672 135.61 18.1751L135.508 18.2757C135.303 18.5775 135.15 18.9297 135.15 19.2818C135.15 19.7345 135.354 20.1369 135.61 20.4387L135.661 20.489C135.968 20.7405 136.326 20.8915 136.735 20.8915C137.195 20.8915 137.604 20.6902 137.91 20.3884C139.444 18.8793 141.643 17.2697 144.352 17.2697C149.414 17.2697 151.255 20.6399 151.255 23.4066C151.255 25.6702 149.619 28.5877 146.295 32.1592C142.41 36.284 138.575 40.4088 134.638 44.5337L134.536 44.6343C134.434 44.7852 134.332 44.9361 134.28 45.087C134.229 45.2882 134.178 45.4391 134.178 45.6403C134.178 45.8415 134.229 46.0427 134.28 46.1936C134.536 46.7973 135.047 47.25 135.763 47.25H135.865H153.146H153.3C154.118 47.1997 154.782 46.5458 154.833 45.7409V45.59C154.782 44.8355 154.169 44.1815 153.351 44.1815Z" fill="white"/>
<g clip-path="url(#clip0_4573_39541)">
<path d="M77.0978 39.7775C76.7891 39.6271 76.7891 39.276 76.7891 39.276V15.8556V15.655C76.7377 14.7523 75.9661 14.0502 75.0401 14H74.9372C73.9598 14 73.2397 14.7523 73.1882 15.7051V15.7553V45.4446C73.1882 46.3974 73.9599 47.1998 74.9887 47.1998C75.5031 47.1998 75.9661 46.9992 76.3261 46.6482L96.4397 21.6731C96.4397 21.6731 96.7484 21.3722 97.1084 21.4725C97.4685 21.6229 97.4685 22.0241 97.4685 22.0241V45.3944V45.595C97.52 46.4977 98.2916 47.1999 99.2175 47.25H99.3204C100.298 47.25 101.018 46.4977 101.069 45.5449V45.4947V15.7553C101.069 14.8024 100.298 14 99.269 14C98.7546 14 98.2401 14.2006 97.9315 14.5517C92.8902 20.8707 77.7665 39.5769 77.7665 39.5769C77.7665 39.5769 77.5607 39.928 77.0978 39.7775Z" fill="white"/>
<path d="M66.1714 45.247L66.125 44.9465C66.125 44.9465 61.7104 16.2534 61.571 15.352C61.3852 14.3505 60.9205 14.0501 60.3164 14.0501H60.2699C59.7123 14.0501 59.3405 14.2504 58.9688 15.302C58.7364 15.9529 50.9762 39.238 50.9762 39.238C50.9762 39.238 50.8832 39.5885 50.5115 39.5885C50.1397 39.5885 50.0468 39.1879 50.0468 39.1879C50.0468 39.1879 42.2865 15.9029 42.0542 15.2519C41.6825 14.1502 41.3107 14 40.7531 14H40.7066C40.1025 14 39.6378 14.3005 39.452 15.302C39.2661 16.2033 34.898 44.8965 34.898 44.8965L34.8516 45.247C34.8516 45.2971 34.8516 45.3972 34.8516 45.4473C34.8516 46.3987 35.5951 47.1999 36.478 47.25H36.5709C37.3609 47.25 38.0114 46.599 38.1508 45.7477H38.1044L38.1508 45.6977L40.8925 24.8163C40.8925 24.8163 40.939 24.2154 41.4036 24.2154C41.8683 24.2154 42.0542 24.8663 42.0542 24.8663L49.2104 46.0983L49.2568 46.1984C49.4427 46.7493 49.8609 47.0998 50.558 47.0998C51.3015 47.0998 51.6732 46.6992 51.8591 46.1984L51.9056 46.0983L59.0153 24.8663C59.0153 24.8663 59.2011 24.2154 59.6658 24.2154C60.084 24.2154 60.177 24.8163 60.177 24.8163L62.9186 45.6476L62.9651 45.6977H62.9186C63.058 46.5489 63.7086 47.1499 64.4986 47.1999H64.5915C65.4744 47.1999 66.2179 46.3987 66.2179 45.3972C66.1714 45.3471 66.1714 45.2971 66.1714 45.247Z" fill="white"/>
<path d="M27.3779 40.9215C27.6799 41.2228 27.8309 41.6749 27.8812 42.1269C27.8812 43.031 27.1766 43.5332 27.1766 43.5332C24.157 46.0446 20.4831 47.25 16.7086 47.25C7.4484 47.25 0 39.9169 0 30.6752C0 21.4335 7.4484 14 16.7086 14C20.9361 14 24.157 15.3561 27.0256 17.5661L27.2269 17.7168C27.6799 18.1186 27.8309 18.5204 27.8309 19.0227C27.8309 19.0227 27.8309 19.6254 27.3779 20.2281L27.3276 20.2783C26.8243 20.7304 26.1197 20.7806 26.1197 20.7806C25.7675 20.7806 25.4152 20.6801 25.1635 20.4792C25.1132 20.429 24.9622 20.3286 24.9622 20.3286C22.6472 18.5204 19.6276 17.3652 16.7086 17.3652C9.41116 17.3652 3.77453 23.4928 3.77453 30.6752C3.77453 37.8074 9.36083 43.935 16.7086 43.935C20.4328 43.935 22.6472 42.5287 25.0125 40.8712C26.0694 40.1178 26.925 40.5699 27.2269 40.821" fill="white"/>
</g>
<defs>
<clipPath id="clip0_4573_39541">
<rect width="101.069" height="63" fill="white"/>
</clipPath>
</defs>
</svg>
