<svg xmlns="http://www.w3.org/2000/svg" viewBox="157.0 368.8 265.4 75.2" width="265.4" height="75.2" fill="#FFFFFF"><path fill-rule="evenodd" d="M 399.71875 379.402344 C 399.78125 379.058594 400.03125 378.875 400.433594 378.875 L 417.980469 378.875 L 419.378906 372.363281 L 398.851562 372.363281 C 394.574219 372.363281 392.03125 374.191406 391.253906 377.882812 L 390.699219 380.515625 C 390.574219 381.074219 390.511719 381.601562 390.511719 382.097656 C 390.511719 384.734375 392.308594 386.035156 395.9375 386.035156 L 407.9375 386.035156 C 408.277344 386.035156 408.464844 386.160156 408.464844 386.4375 C 408.464844 386.46875 408.433594 386.53125 408.433594 386.59375 L 408.15625 387.960938 C 408.0625 388.332031 407.8125 388.515625 407.410156 388.515625 L 389.054688 388.515625 L 387.691406 395.027344 L 409.023438 395.027344 C 413.332031 395.027344 415.8125 393.199219 416.617188 389.507812 L 417.363281 386.066406 C 417.484375 385.507812 417.546875 384.980469 417.546875 384.488281 C 417.546875 381.851562 415.71875 380.546875 412.089844 380.546875 L 400.09375 380.546875 C 399.75 380.546875 399.566406 380.425781 399.566406 380.175781 C 399.566406 380.113281 399.566406 380.050781 399.597656 379.992188 Z M 390.890625 372.363281 L 360.8125 372.363281 L 359.417969 378.875 L 369.992188 378.875 L 366.582031 395.027344 L 375.511719 395.027344 L 378.921875 378.875 L 389.496094 378.875 Z M 336.882812 379.402344 C 336.945312 379.058594 337.191406 378.875 337.597656 378.875 L 347.796875 378.875 C 348.136719 378.875 348.324219 379.03125 348.324219 379.277344 L 348.324219 379.402344 L 347.550781 383.03125 L 336.109375 383.03125 Z M 333.566406 395.027344 L 334.929688 388.515625 L 346.371094 388.515625 L 345.007812 395.027344 L 353.9375 395.027344 L 357.6875 377.261719 C 357.78125 376.765625 357.84375 376.300781 357.84375 375.867188 C 357.84375 373.542969 356.199219 372.363281 352.914062 372.363281 L 335.269531 372.363281 C 331.425781 372.363281 329.070312 374.007812 328.386719 377.261719 L 324.636719 395.027344 Z M 289.886719 395.027344 L 292.429688 383 L 296.273438 393.230469 C 296.707031 394.410156 297.730469 395.027344 299.15625 395.027344 L 303.839844 395.027344 C 305.265625 395.027344 306.503906 394.410156 307.46875 393.230469 L 315.652344 383 L 313.109375 395.027344 L 320.984375 395.027344 L 324.832031 376.890625 C 324.921875 376.394531 324.984375 375.929688 324.984375 375.496094 C 324.984375 373.386719 323.652344 372.363281 320.984375 372.363281 L 317.140625 372.363281 C 315.433594 372.363281 314.070312 372.953125 313.140625 374.160156 L 303.21875 386.84375 L 298.722656 374.160156 C 298.289062 372.953125 297.171875 372.363281 295.46875 372.363281 L 291.625 372.363281 C 288.429688 372.363281 286.507812 373.851562 285.855469 376.890625 L 282.011719 395.027344 Z M 262.171875 378.75 L 272.902344 378.75 C 273.242188 378.75 273.429688 378.875 273.429688 379.152344 C 273.429688 379.183594 273.398438 379.246094 273.398438 379.308594 L 272.964844 381.355469 C 272.902344 381.726562 272.621094 381.914062 272.21875 381.914062 L 261.492188 381.914062 Z M 258.730469 395.027344 L 260.34375 387.433594 L 265.429688 387.433594 L 270.109375 395.027344 L 280 395.027344 L 280.0625 394.71875 L 275.382812 387.371094 C 278.917969 386.996094 280.933594 385.199219 281.644531 381.914062 L 282.511719 377.882812 C 282.636719 377.324219 282.699219 376.796875 282.699219 376.300781 C 282.699219 373.664062 280.871094 372.363281 277.242188 372.363281 L 254.609375 372.363281 L 249.800781 395.027344 Z M 227.390625 387.960938 L 229.21875 379.402344 C 229.28125 379.058594 229.53125 378.875 229.933594 378.875 L 240.042969 378.875 C 240.382812 378.875 240.566406 379.03125 240.566406 379.277344 L 240.566406 379.402344 L 238.738281 387.960938 C 238.644531 388.332031 238.398438 388.515625 237.996094 388.515625 L 227.886719 388.515625 C 227.546875 388.515625 227.359375 388.394531 227.359375 388.144531 C 227.359375 388.082031 227.359375 388.019531 227.390625 387.960938 M 223.421875 395.027344 L 239.730469 395.027344 C 244.042969 395.027344 246.550781 393.199219 247.328125 389.507812 L 249.808594 377.882812 C 249.933594 377.324219 249.996094 376.796875 249.996094 376.300781 C 249.996094 373.664062 248.164062 372.363281 244.539062 372.363281 L 228.226562 372.363281 C 223.917969 372.363281 221.375 374.191406 220.601562 377.882812 L 218.121094 389.507812 C 217.996094 390.066406 217.933594 390.59375 217.933594 391.058594 C 217.933594 393.726562 219.761719 395.027344 223.421875 395.027344 M 179.195312 396.082031 L 202.511719 396.082031 L 204.601562 386.347656 L 181.285156 386.347656 L 181.890625 383.378906 L 214.773438 383.378906 L 217.25 371.828125 L 168.527344 371.828125 L 160.003906 412.027344 L 175.839844 412.027344 Z M 353.421875 408.402344 L 352.648438 412.03125 L 341.207031 412.03125 L 341.980469 408.402344 C 342.042969 408.058594 342.292969 407.875 342.695312 407.875 L 352.894531 407.875 C 353.234375 407.875 353.421875 408.03125 353.421875 408.277344 Z M 358.011719 401.363281 L 340.371094 401.363281 C 336.523438 401.363281 334.167969 403.007812 333.484375 406.261719 L 329.734375 424.027344 L 338.664062 424.027344 L 340.027344 417.515625 L 351.46875 417.515625 L 350.105469 424.027344 L 359.035156 424.027344 L 362.785156 406.261719 C 362.878906 405.765625 362.941406 405.300781 362.941406 404.867188 C 362.941406 402.542969 361.296875 401.363281 358.011719 401.363281 M 321.859375 401.363281 L 317.054688 424.027344 L 325.984375 424.027344 L 330.789062 401.363281 Z M 307.851562 408.402344 L 306.023438 416.960938 C 305.929688 417.332031 305.683594 417.515625 305.28125 417.515625 L 294.488281 417.515625 L 296.535156 407.875 L 307.324219 407.875 C 307.667969 407.875 307.851562 408.03125 307.851562 408.277344 Z M 317.277344 405.300781 C 317.277344 402.664062 315.449219 401.363281 311.820312 401.363281 L 289 401.363281 L 284.195312 424.027344 L 307.015625 424.027344 C 311.324219 424.027344 313.835938 422.199219 314.613281 418.507812 L 317.09375 406.882812 C 317.214844 406.324219 317.277344 405.796875 317.277344 405.300781 M 264.203125 415.035156 L 278.371094 415.035156 L 279.550781 409.546875 L 265.378906 409.546875 L 265.722656 407.875 L 284.542969 407.875 L 285.9375 401.363281 L 258.1875 401.363281 L 253.382812 424.027344 L 281.132812 424.027344 L 282.496094 417.515625 L 263.675781 417.515625 Z M 244.835938 400.828125 L 238.015625 400.828125 C 234.992188 400.828125 232.574219 401.875 230.921875 404.019531 L 213.324219 426.511719 L 205.351562 404.019531 C 204.582031 401.875 202.601562 400.828125 199.578125 400.828125 L 192.757812 400.828125 C 187.09375 400.828125 183.683594 403.46875 182.53125 408.855469 L 175.710938 441.027344 L 189.679688 441.027344 L 194.1875 419.691406 L 201.007812 437.839844 C 201.777344 439.929688 203.589844 441.027344 206.121094 441.027344 L 214.425781 441.027344 C 216.953125 441.027344 219.15625 439.929688 220.859375 437.839844 L 235.378906 419.691406 L 230.867188 441.027344 L 244.835938 441.027344 L 251.65625 408.855469 C 251.820312 407.976562 251.929688 407.152344 251.929688 406.382812 C 251.929688 402.644531 249.566406 400.828125 244.835938 400.828125 "/></svg>
