<svg xmlns="http://www.w3.org/2000/svg" viewBox="491.4 368.8 96.5 75.2" width="96.5" height="75.2" fill="#FFFFFF"><path fill-rule="evenodd" d="M 513.617188 396.082031 L 536.933594 396.082031 L 539.023438 386.347656 L 515.707031 386.347656 L 516.3125 383.378906 L 549.199219 383.378906 L 551.671875 371.828125 L 502.949219 371.828125 L 494.425781 412.027344 L 510.265625 412.027344 Z M 577.859375 400.828125 L 571.042969 400.828125 C 568.019531 400.828125 565.597656 401.875 563.949219 404.019531 L 546.351562 426.511719 L 538.375 404.019531 C 537.605469 401.875 535.625 400.828125 532.601562 400.828125 L 525.78125 400.828125 C 520.117188 400.828125 516.710938 403.46875 515.554688 408.859375 L 508.734375 441.027344 L 522.703125 441.027344 L 527.214844 419.691406 L 534.03125 437.839844 C 534.800781 439.929688 536.617188 441.027344 539.148438 441.027344 L 547.449219 441.027344 C 549.980469 441.027344 552.179688 439.929688 553.886719 437.839844 L 568.402344 419.691406 L 563.894531 441.027344 L 577.859375 441.027344 L 584.679688 408.859375 C 584.847656 407.976562 584.953125 407.152344 584.953125 406.382812 C 584.953125 402.644531 582.589844 400.828125 577.859375 400.828125 "/></svg>
